<mxfile host="app.diagrams.net" agent="Mozilla/5.0 (Windows NT 10.0; Win64; x64) AppleWebKit/537.36 (KHTML, like Gecko) Chrome/131.0.0.0 Safari/537.36" version="24.8.6" pages="2">
  <diagram id="C5RBs43oDa-KdzZeNtuy" name="Class Diagram">
    <mxGraphModel dx="875" dy="469" grid="1" gridSize="10" guides="1" tooltips="1" connect="1" arrows="1" fold="1" page="1" pageScale="1" pageWidth="827" pageHeight="1169" math="0" shadow="0">
      <root>
        <mxCell id="WIyWlLk6GJQsqaUBKTNV-0" />
        <mxCell id="WIyWlLk6GJQsqaUBKTNV-1" parent="WIyWlLk6GJQsqaUBKTNV-0" />
        <mxCell id="_1ktN_GvWhrDKpTRPfWt-11" style="edgeStyle=orthogonalEdgeStyle;rounded=0;orthogonalLoop=1;jettySize=auto;html=1;entryX=0;entryY=0.5;entryDx=0;entryDy=0;" edge="1" parent="WIyWlLk6GJQsqaUBKTNV-1" source="zkfFHV4jXpPFQw0GAbJ--0" target="0duWRfGJagqjJY6Ipb-T-25">
          <mxGeometry relative="1" as="geometry" />
        </mxCell>
        <mxCell id="zkfFHV4jXpPFQw0GAbJ--0" value="Product" style="swimlane;fontStyle=2;align=center;verticalAlign=top;childLayout=stackLayout;horizontal=1;startSize=26;horizontalStack=0;resizeParent=1;resizeLast=0;collapsible=1;marginBottom=0;rounded=0;shadow=0;strokeWidth=1;" parent="WIyWlLk6GJQsqaUBKTNV-1" vertex="1">
          <mxGeometry x="210" y="109" width="160" height="156" as="geometry">
            <mxRectangle x="220" y="120" width="160" height="26" as="alternateBounds" />
          </mxGeometry>
        </mxCell>
        <mxCell id="zkfFHV4jXpPFQw0GAbJ--1" value="-name : string" style="text;align=left;verticalAlign=top;spacingLeft=4;spacingRight=4;overflow=hidden;rotatable=0;points=[[0,0.5],[1,0.5]];portConstraint=eastwest;" parent="zkfFHV4jXpPFQw0GAbJ--0" vertex="1">
          <mxGeometry y="26" width="160" height="26" as="geometry" />
        </mxCell>
        <mxCell id="zkfFHV4jXpPFQw0GAbJ--2" value="-supplier : string" style="text;align=left;verticalAlign=top;spacingLeft=4;spacingRight=4;overflow=hidden;rotatable=0;points=[[0,0.5],[1,0.5]];portConstraint=eastwest;rounded=0;shadow=0;html=0;" parent="zkfFHV4jXpPFQw0GAbJ--0" vertex="1">
          <mxGeometry y="52" width="160" height="26" as="geometry" />
        </mxCell>
        <mxCell id="zkfFHV4jXpPFQw0GAbJ--3" value="-amount : int" style="text;align=left;verticalAlign=top;spacingLeft=4;spacingRight=4;overflow=hidden;rotatable=0;points=[[0,0.5],[1,0.5]];portConstraint=eastwest;rounded=0;shadow=0;html=0;" parent="zkfFHV4jXpPFQw0GAbJ--0" vertex="1">
          <mxGeometry y="78" width="160" height="26" as="geometry" />
        </mxCell>
        <mxCell id="0duWRfGJagqjJY6Ipb-T-0" value="-price : float" style="text;align=left;verticalAlign=top;spacingLeft=4;spacingRight=4;overflow=hidden;rotatable=0;points=[[0,0.5],[1,0.5]];portConstraint=eastwest;rounded=0;shadow=0;html=0;" parent="zkfFHV4jXpPFQw0GAbJ--0" vertex="1">
          <mxGeometry y="104" width="160" height="26" as="geometry" />
        </mxCell>
        <mxCell id="m8h58f2gquPV5kVaMoUX-12" value="-sales : int" style="text;align=left;verticalAlign=top;spacingLeft=4;spacingRight=4;overflow=hidden;rotatable=0;points=[[0,0.5],[1,0.5]];portConstraint=eastwest;rounded=0;shadow=0;html=0;" parent="zkfFHV4jXpPFQw0GAbJ--0" vertex="1">
          <mxGeometry y="130" width="160" height="26" as="geometry" />
        </mxCell>
        <mxCell id="zkfFHV4jXpPFQw0GAbJ--6" value="Edibles" style="swimlane;fontStyle=0;align=center;verticalAlign=top;childLayout=stackLayout;horizontal=1;startSize=26;horizontalStack=0;resizeParent=1;resizeLast=0;collapsible=1;marginBottom=0;rounded=0;shadow=0;strokeWidth=1;" parent="WIyWlLk6GJQsqaUBKTNV-1" vertex="1">
          <mxGeometry x="110" y="316" width="160" height="84" as="geometry">
            <mxRectangle x="130" y="380" width="160" height="26" as="alternateBounds" />
          </mxGeometry>
        </mxCell>
        <mxCell id="zkfFHV4jXpPFQw0GAbJ--7" value="-expiryDate : int" style="text;align=left;verticalAlign=top;spacingLeft=4;spacingRight=4;overflow=hidden;rotatable=0;points=[[0,0.5],[1,0.5]];portConstraint=eastwest;" parent="zkfFHV4jXpPFQw0GAbJ--6" vertex="1">
          <mxGeometry y="26" width="160" height="26" as="geometry" />
        </mxCell>
        <mxCell id="zkfFHV4jXpPFQw0GAbJ--8" value="-petType : string" style="text;align=left;verticalAlign=top;spacingLeft=4;spacingRight=4;overflow=hidden;rotatable=0;points=[[0,0.5],[1,0.5]];portConstraint=eastwest;rounded=0;shadow=0;html=0;" parent="zkfFHV4jXpPFQw0GAbJ--6" vertex="1">
          <mxGeometry y="52" width="160" height="28" as="geometry" />
        </mxCell>
        <mxCell id="zkfFHV4jXpPFQw0GAbJ--12" value="" style="endArrow=block;endSize=10;endFill=0;shadow=0;strokeWidth=1;rounded=0;curved=0;edgeStyle=elbowEdgeStyle;elbow=vertical;" parent="WIyWlLk6GJQsqaUBKTNV-1" source="zkfFHV4jXpPFQw0GAbJ--6" target="zkfFHV4jXpPFQw0GAbJ--0" edge="1">
          <mxGeometry width="160" relative="1" as="geometry">
            <mxPoint x="190" y="193" as="sourcePoint" />
            <mxPoint x="190" y="193" as="targetPoint" />
          </mxGeometry>
        </mxCell>
        <mxCell id="zkfFHV4jXpPFQw0GAbJ--13" value="Accessories" style="swimlane;fontStyle=0;align=center;verticalAlign=top;childLayout=stackLayout;horizontal=1;startSize=26;horizontalStack=0;resizeParent=1;resizeLast=0;collapsible=1;marginBottom=0;rounded=0;shadow=0;strokeWidth=1;" parent="WIyWlLk6GJQsqaUBKTNV-1" vertex="1">
          <mxGeometry x="310" y="316" width="160" height="78" as="geometry">
            <mxRectangle x="340" y="380" width="170" height="26" as="alternateBounds" />
          </mxGeometry>
        </mxCell>
        <mxCell id="zkfFHV4jXpPFQw0GAbJ--14" value="-isChewable: bool" style="text;align=left;verticalAlign=top;spacingLeft=4;spacingRight=4;overflow=hidden;rotatable=0;points=[[0,0.5],[1,0.5]];portConstraint=eastwest;" parent="zkfFHV4jXpPFQw0GAbJ--13" vertex="1">
          <mxGeometry y="26" width="160" height="26" as="geometry" />
        </mxCell>
        <mxCell id="0duWRfGJagqjJY6Ipb-T-1" value="-color : string" style="text;align=left;verticalAlign=top;spacingLeft=4;spacingRight=4;overflow=hidden;rotatable=0;points=[[0,0.5],[1,0.5]];portConstraint=eastwest;" parent="zkfFHV4jXpPFQw0GAbJ--13" vertex="1">
          <mxGeometry y="52" width="160" height="26" as="geometry" />
        </mxCell>
        <mxCell id="zkfFHV4jXpPFQw0GAbJ--16" value="" style="endArrow=block;endSize=10;endFill=0;shadow=0;strokeWidth=1;rounded=0;curved=0;edgeStyle=elbowEdgeStyle;elbow=vertical;" parent="WIyWlLk6GJQsqaUBKTNV-1" source="zkfFHV4jXpPFQw0GAbJ--13" target="zkfFHV4jXpPFQw0GAbJ--0" edge="1">
          <mxGeometry width="160" relative="1" as="geometry">
            <mxPoint x="200" y="363" as="sourcePoint" />
            <mxPoint x="300" y="261" as="targetPoint" />
          </mxGeometry>
        </mxCell>
        <mxCell id="m8h58f2gquPV5kVaMoUX-25" style="edgeStyle=orthogonalEdgeStyle;rounded=0;orthogonalLoop=1;jettySize=auto;html=1;entryX=0.5;entryY=0;entryDx=0;entryDy=0;" parent="WIyWlLk6GJQsqaUBKTNV-1" source="zkfFHV4jXpPFQw0GAbJ--17" target="m8h58f2gquPV5kVaMoUX-2" edge="1">
          <mxGeometry relative="1" as="geometry" />
        </mxCell>
        <mxCell id="zkfFHV4jXpPFQw0GAbJ--17" value="InventoryController" style="swimlane;fontStyle=0;align=center;verticalAlign=top;childLayout=stackLayout;horizontal=1;startSize=26;horizontalStack=0;resizeParent=1;resizeLast=0;collapsible=1;marginBottom=0;rounded=0;shadow=0;strokeWidth=1;" parent="WIyWlLk6GJQsqaUBKTNV-1" vertex="1">
          <mxGeometry x="510" y="122" width="250" height="140" as="geometry">
            <mxRectangle x="550" y="140" width="160" height="26" as="alternateBounds" />
          </mxGeometry>
        </mxCell>
        <mxCell id="m8h58f2gquPV5kVaMoUX-11" value="&lt;span style=&quot;text-wrap-mode: nowrap;&quot;&gt;-inventoryModel : InventoryModel&lt;/span&gt;" style="text;strokeColor=none;fillColor=none;align=left;verticalAlign=top;spacingLeft=4;spacingRight=4;overflow=hidden;rotatable=0;points=[[0,0.5],[1,0.5]];portConstraint=eastwest;whiteSpace=wrap;html=1;" parent="zkfFHV4jXpPFQw0GAbJ--17" vertex="1">
          <mxGeometry y="26" width="250" height="26" as="geometry" />
        </mxCell>
        <mxCell id="0duWRfGJagqjJY6Ipb-T-25" value="&lt;span style=&quot;text-wrap-mode: nowrap;&quot;&gt;-inventoryView : InventoryView&lt;/span&gt;" style="text;strokeColor=none;fillColor=none;align=left;verticalAlign=top;spacingLeft=4;spacingRight=4;overflow=hidden;rotatable=0;points=[[0,0.5],[1,0.5]];portConstraint=eastwest;whiteSpace=wrap;html=1;" parent="zkfFHV4jXpPFQw0GAbJ--17" vertex="1">
          <mxGeometry y="52" width="250" height="26" as="geometry" />
        </mxCell>
        <mxCell id="zkfFHV4jXpPFQw0GAbJ--23" value="" style="line;html=1;strokeWidth=1;align=left;verticalAlign=middle;spacingTop=-1;spacingLeft=3;spacingRight=3;rotatable=0;labelPosition=right;points=[];portConstraint=eastwest;" parent="zkfFHV4jXpPFQw0GAbJ--17" vertex="1">
          <mxGeometry y="78" width="250" height="8" as="geometry" />
        </mxCell>
        <mxCell id="0duWRfGJagqjJY6Ipb-T-4" value="+inputFromFile(file:string) : void" style="text;align=left;verticalAlign=top;spacingLeft=4;spacingRight=4;overflow=hidden;rotatable=0;points=[[0,0.5],[1,0.5]];portConstraint=eastwest;" parent="zkfFHV4jXpPFQw0GAbJ--17" vertex="1">
          <mxGeometry y="86" width="250" height="26" as="geometry" />
        </mxCell>
        <mxCell id="0duWRfGJagqjJY6Ipb-T-3" value="+outputToFile(file:string, inventory:list) : void" style="text;align=left;verticalAlign=top;spacingLeft=4;spacingRight=4;overflow=hidden;rotatable=0;points=[[0,0.5],[1,0.5]];portConstraint=eastwest;" parent="zkfFHV4jXpPFQw0GAbJ--17" vertex="1">
          <mxGeometry y="112" width="250" height="26" as="geometry" />
        </mxCell>
        <mxCell id="0duWRfGJagqjJY6Ipb-T-9" value="InventoryModel" style="swimlane;fontStyle=1;align=center;verticalAlign=top;childLayout=stackLayout;horizontal=1;startSize=26;horizontalStack=0;resizeParent=1;resizeParentMax=0;resizeLast=0;collapsible=1;marginBottom=0;whiteSpace=wrap;html=1;" parent="WIyWlLk6GJQsqaUBKTNV-1" vertex="1">
          <mxGeometry x="870" y="89" width="300" height="262" as="geometry">
            <mxRectangle x="860" y="120" width="120" height="30" as="alternateBounds" />
          </mxGeometry>
        </mxCell>
        <mxCell id="0duWRfGJagqjJY6Ipb-T-10" value="&lt;span style=&quot;text-wrap-mode: nowrap;&quot;&gt;-productStack:List&lt;/span&gt;" style="text;strokeColor=none;fillColor=none;align=left;verticalAlign=top;spacingLeft=4;spacingRight=4;overflow=hidden;rotatable=0;points=[[0,0.5],[1,0.5]];portConstraint=eastwest;whiteSpace=wrap;html=1;" parent="0duWRfGJagqjJY6Ipb-T-9" vertex="1">
          <mxGeometry y="26" width="300" height="26" as="geometry" />
        </mxCell>
        <mxCell id="0duWRfGJagqjJY6Ipb-T-11" value="" style="line;strokeWidth=1;fillColor=none;align=left;verticalAlign=middle;spacingTop=-1;spacingLeft=3;spacingRight=3;rotatable=0;labelPosition=right;points=[];portConstraint=eastwest;strokeColor=inherit;" parent="0duWRfGJagqjJY6Ipb-T-9" vertex="1">
          <mxGeometry y="52" width="300" height="8" as="geometry" />
        </mxCell>
        <mxCell id="0duWRfGJagqjJY6Ipb-T-12" value="+addProduct(product:Product) : void" style="text;strokeColor=none;fillColor=none;align=left;verticalAlign=top;spacingLeft=4;spacingRight=4;overflow=hidden;rotatable=0;points=[[0,0.5],[1,0.5]];portConstraint=eastwest;whiteSpace=wrap;html=1;" parent="0duWRfGJagqjJY6Ipb-T-9" vertex="1">
          <mxGeometry y="60" width="300" height="26" as="geometry" />
        </mxCell>
        <mxCell id="zkfFHV4jXpPFQw0GAbJ--25" value="+removeProduct(productName:string): void" style="text;align=left;verticalAlign=top;spacingLeft=4;spacingRight=4;overflow=hidden;rotatable=0;points=[[0,0.5],[1,0.5]];portConstraint=eastwest;" parent="0duWRfGJagqjJY6Ipb-T-9" vertex="1">
          <mxGeometry y="86" width="300" height="24" as="geometry" />
        </mxCell>
        <mxCell id="bYRpA2NPyC7JANyhQhbD-0" value="+sellProduct(productName:string, amount:int): void" style="text;align=left;verticalAlign=top;spacingLeft=4;spacingRight=4;overflow=hidden;rotatable=0;points=[[0,0.5],[1,0.5]];portConstraint=eastwest;" vertex="1" parent="0duWRfGJagqjJY6Ipb-T-9">
          <mxGeometry y="110" width="300" height="24" as="geometry" />
        </mxCell>
        <mxCell id="qHRDsOJ6uMgE_AwOD7xp-0" value="+findLowStock(): list" style="text;align=left;verticalAlign=top;spacingLeft=4;spacingRight=4;overflow=hidden;rotatable=0;points=[[0,0.5],[1,0.5]];portConstraint=eastwest;" vertex="1" parent="0duWRfGJagqjJY6Ipb-T-9">
          <mxGeometry y="134" width="300" height="24" as="geometry" />
        </mxCell>
        <mxCell id="m8h58f2gquPV5kVaMoUX-19" value="+findBy(attribute:string, attributeValue:string) : list" style="text;strokeColor=none;fillColor=none;align=left;verticalAlign=top;spacingLeft=4;spacingRight=4;overflow=hidden;rotatable=0;points=[[0,0.5],[1,0.5]];portConstraint=eastwest;whiteSpace=wrap;html=1;" parent="0duWRfGJagqjJY6Ipb-T-9" vertex="1">
          <mxGeometry y="158" width="300" height="26" as="geometry" />
        </mxCell>
        <mxCell id="m8h58f2gquPV5kVaMoUX-18" value="+sortBy(attribute:string, order:string) : list" style="text;strokeColor=none;fillColor=none;align=left;verticalAlign=top;spacingLeft=4;spacingRight=4;overflow=hidden;rotatable=0;points=[[0,0.5],[1,0.5]];portConstraint=eastwest;whiteSpace=wrap;html=1;" parent="0duWRfGJagqjJY6Ipb-T-9" vertex="1">
          <mxGeometry y="184" width="300" height="26" as="geometry" />
        </mxCell>
        <mxCell id="NsDNnJR0e3THDdlPkHAr-0" value="+addStock(productName:string, amount:int) : void" style="text;strokeColor=none;fillColor=none;align=left;verticalAlign=top;spacingLeft=4;spacingRight=4;overflow=hidden;rotatable=0;points=[[0,0.5],[1,0.5]];portConstraint=eastwest;whiteSpace=wrap;html=1;" vertex="1" parent="0duWRfGJagqjJY6Ipb-T-9">
          <mxGeometry y="210" width="300" height="26" as="geometry" />
        </mxCell>
        <mxCell id="NsDNnJR0e3THDdlPkHAr-1" value="+removeStock(productName:string, amount:int) : void" style="text;strokeColor=none;fillColor=none;align=left;verticalAlign=top;spacingLeft=4;spacingRight=4;overflow=hidden;rotatable=0;points=[[0,0.5],[1,0.5]];portConstraint=eastwest;whiteSpace=wrap;html=1;" vertex="1" parent="0duWRfGJagqjJY6Ipb-T-9">
          <mxGeometry y="236" width="300" height="26" as="geometry" />
        </mxCell>
        <mxCell id="0duWRfGJagqjJY6Ipb-T-17" value="InventoryView" style="swimlane;fontStyle=0;align=center;verticalAlign=top;childLayout=stackLayout;horizontal=1;startSize=26;horizontalStack=0;resizeParent=1;resizeLast=0;collapsible=1;marginBottom=0;rounded=0;shadow=0;strokeWidth=1;" parent="WIyWlLk6GJQsqaUBKTNV-1" vertex="1">
          <mxGeometry x="870" y="370" width="240" height="69" as="geometry">
            <mxRectangle x="550" y="140" width="160" height="26" as="alternateBounds" />
          </mxGeometry>
        </mxCell>
        <mxCell id="0duWRfGJagqjJY6Ipb-T-18" value="" style="line;html=1;strokeWidth=1;align=left;verticalAlign=middle;spacingTop=-1;spacingLeft=3;spacingRight=3;rotatable=0;labelPosition=right;points=[];portConstraint=eastwest;" parent="0duWRfGJagqjJY6Ipb-T-17" vertex="1">
          <mxGeometry y="26" width="240" height="8" as="geometry" />
        </mxCell>
        <mxCell id="0duWRfGJagqjJY6Ipb-T-19" value="+outputInventory(productStack:list) : void" style="text;align=left;verticalAlign=top;spacingLeft=4;spacingRight=4;overflow=hidden;rotatable=0;points=[[0,0.5],[1,0.5]];portConstraint=eastwest;" parent="0duWRfGJagqjJY6Ipb-T-17" vertex="1">
          <mxGeometry y="34" width="240" height="26" as="geometry" />
        </mxCell>
        <mxCell id="m8h58f2gquPV5kVaMoUX-2" value="Report&lt;div&gt;&lt;br&gt;&lt;/div&gt;" style="swimlane;fontStyle=1;align=center;verticalAlign=top;childLayout=stackLayout;horizontal=1;startSize=26;horizontalStack=0;resizeParent=1;resizeParentMax=0;resizeLast=0;collapsible=1;marginBottom=0;whiteSpace=wrap;html=1;" parent="WIyWlLk6GJQsqaUBKTNV-1" vertex="1">
          <mxGeometry x="555" y="316" width="160" height="138" as="geometry" />
        </mxCell>
        <mxCell id="m8h58f2gquPV5kVaMoUX-28" value="-reportContent:List" style="text;strokeColor=none;fillColor=none;align=left;verticalAlign=top;spacingLeft=4;spacingRight=4;overflow=hidden;rotatable=0;points=[[0,0.5],[1,0.5]];portConstraint=eastwest;whiteSpace=wrap;html=1;" parent="m8h58f2gquPV5kVaMoUX-2" vertex="1">
          <mxGeometry y="26" width="160" height="26" as="geometry" />
        </mxCell>
        <mxCell id="m8h58f2gquPV5kVaMoUX-4" value="" style="line;strokeWidth=1;fillColor=none;align=left;verticalAlign=middle;spacingTop=-1;spacingLeft=3;spacingRight=3;rotatable=0;labelPosition=right;points=[];portConstraint=eastwest;strokeColor=inherit;" parent="m8h58f2gquPV5kVaMoUX-2" vertex="1">
          <mxGeometry y="52" width="160" height="8" as="geometry" />
        </mxCell>
        <mxCell id="m8h58f2gquPV5kVaMoUX-26" value="+produceReport(list):void" style="text;strokeColor=none;fillColor=none;align=left;verticalAlign=top;spacingLeft=4;spacingRight=4;overflow=hidden;rotatable=0;points=[[0,0.5],[1,0.5]];portConstraint=eastwest;whiteSpace=wrap;html=1;" parent="m8h58f2gquPV5kVaMoUX-2" vertex="1">
          <mxGeometry y="60" width="160" height="26" as="geometry" />
        </mxCell>
        <mxCell id="m8h58f2gquPV5kVaMoUX-27" value="+outputReport(list):void" style="text;strokeColor=none;fillColor=none;align=left;verticalAlign=top;spacingLeft=4;spacingRight=4;overflow=hidden;rotatable=0;points=[[0,0.5],[1,0.5]];portConstraint=eastwest;whiteSpace=wrap;html=1;" parent="m8h58f2gquPV5kVaMoUX-2" vertex="1">
          <mxGeometry y="86" width="160" height="26" as="geometry" />
        </mxCell>
        <mxCell id="m8h58f2gquPV5kVaMoUX-5" value="+outputToFile(list):void" style="text;strokeColor=none;fillColor=none;align=left;verticalAlign=top;spacingLeft=4;spacingRight=4;overflow=hidden;rotatable=0;points=[[0,0.5],[1,0.5]];portConstraint=eastwest;whiteSpace=wrap;html=1;" parent="m8h58f2gquPV5kVaMoUX-2" vertex="1">
          <mxGeometry y="112" width="160" height="26" as="geometry" />
        </mxCell>
        <mxCell id="_1ktN_GvWhrDKpTRPfWt-7" value="" style="endArrow=diamondThin;endFill=1;endSize=24;html=1;rounded=0;edgeStyle=orthogonalEdgeStyle;entryX=1;entryY=0.5;entryDx=0;entryDy=0;exitX=0;exitY=0.5;exitDx=0;exitDy=0;" edge="1" parent="WIyWlLk6GJQsqaUBKTNV-1" source="zkfFHV4jXpPFQw0GAbJ--25" target="0duWRfGJagqjJY6Ipb-T-25">
          <mxGeometry width="160" relative="1" as="geometry">
            <mxPoint x="740" y="280" as="sourcePoint" />
            <mxPoint x="900" y="280" as="targetPoint" />
          </mxGeometry>
        </mxCell>
        <mxCell id="_1ktN_GvWhrDKpTRPfWt-8" value="" style="endArrow=diamondThin;endFill=1;endSize=24;html=1;rounded=0;entryX=1;entryY=0.5;entryDx=0;entryDy=0;exitX=0;exitY=0.5;exitDx=0;exitDy=0;edgeStyle=orthogonalEdgeStyle;" edge="1" parent="WIyWlLk6GJQsqaUBKTNV-1" source="0duWRfGJagqjJY6Ipb-T-19" target="0duWRfGJagqjJY6Ipb-T-3">
          <mxGeometry width="160" relative="1" as="geometry">
            <mxPoint x="640" y="330" as="sourcePoint" />
            <mxPoint x="800" y="330" as="targetPoint" />
          </mxGeometry>
        </mxCell>
      </root>
    </mxGraphModel>
  </diagram>
  <diagram id="i3TARtwYu0nlH-t-h8Ej" name="Flowchart - Main">
    <mxGraphModel dx="3000" dy="1609" grid="1" gridSize="10" guides="1" tooltips="1" connect="1" arrows="1" fold="1" page="1" pageScale="1" pageWidth="1169" pageHeight="827" math="0" shadow="0">
      <root>
        <mxCell id="0" />
        <mxCell id="1" parent="0" />
        <mxCell id="BQUk5wlq5gaPyvShyjie-4" value="" style="edgeStyle=orthogonalEdgeStyle;rounded=0;orthogonalLoop=1;jettySize=auto;html=1;" edge="1" parent="1" source="RcuSR_sWdsqwu1360JzC-1" target="BQUk5wlq5gaPyvShyjie-3">
          <mxGeometry relative="1" as="geometry" />
        </mxCell>
        <mxCell id="RcuSR_sWdsqwu1360JzC-1" value="Start" style="rounded=1;whiteSpace=wrap;html=1;" vertex="1" parent="1">
          <mxGeometry x="480" y="260" width="120" height="60" as="geometry" />
        </mxCell>
        <mxCell id="etOVG2wV07rIoBDFjDyh-8" value="" style="edgeStyle=orthogonalEdgeStyle;rounded=0;orthogonalLoop=1;jettySize=auto;html=1;" edge="1" parent="1" source="RcuSR_sWdsqwu1360JzC-4" target="etOVG2wV07rIoBDFjDyh-7">
          <mxGeometry relative="1" as="geometry" />
        </mxCell>
        <mxCell id="RcuSR_sWdsqwu1360JzC-4" value="OUTPUT Welcome Message" style="shape=parallelogram;perimeter=parallelogramPerimeter;whiteSpace=wrap;html=1;fixedSize=1;" vertex="1" parent="1">
          <mxGeometry x="470" y="450" width="140" height="56" as="geometry" />
        </mxCell>
        <mxCell id="etOVG2wV07rIoBDFjDyh-4" value="" style="edgeStyle=orthogonalEdgeStyle;rounded=0;orthogonalLoop=1;jettySize=auto;html=1;" edge="1" parent="1" source="RcuSR_sWdsqwu1360JzC-5" target="RcuSR_sWdsqwu1360JzC-6">
          <mxGeometry relative="1" as="geometry" />
        </mxCell>
        <mxCell id="RcuSR_sWdsqwu1360JzC-5" value="INPUT User Selection" style="shape=parallelogram;perimeter=parallelogramPerimeter;whiteSpace=wrap;html=1;fixedSize=1;" vertex="1" parent="1">
          <mxGeometry x="464.5" y="620" width="151" height="60" as="geometry" />
        </mxCell>
        <mxCell id="etOVG2wV07rIoBDFjDyh-5" value="" style="edgeStyle=orthogonalEdgeStyle;rounded=0;orthogonalLoop=1;jettySize=auto;html=1;" edge="1" parent="1" source="RcuSR_sWdsqwu1360JzC-6" target="etOVG2wV07rIoBDFjDyh-1">
          <mxGeometry relative="1" as="geometry" />
        </mxCell>
        <mxCell id="RcuSR_sWdsqwu1360JzC-6" value="IF user selection == 1&lt;div&gt;(see inventory)&lt;/div&gt;" style="rhombus;whiteSpace=wrap;html=1;" vertex="1" parent="1">
          <mxGeometry x="464.5" y="710" width="151" height="150" as="geometry" />
        </mxCell>
        <mxCell id="etOVG2wV07rIoBDFjDyh-11" style="edgeStyle=orthogonalEdgeStyle;rounded=0;orthogonalLoop=1;jettySize=auto;html=1;entryX=0;entryY=0.5;entryDx=0;entryDy=0;" edge="1" parent="1" source="etOVG2wV07rIoBDFjDyh-1" target="etOVG2wV07rIoBDFjDyh-7">
          <mxGeometry relative="1" as="geometry">
            <Array as="points">
              <mxPoint x="410" y="925" />
              <mxPoint x="410" y="560" />
            </Array>
          </mxGeometry>
        </mxCell>
        <mxCell id="etOVG2wV07rIoBDFjDyh-1" value="OUTPUT inventory" style="shape=parallelogram;perimeter=parallelogramPerimeter;whiteSpace=wrap;html=1;fixedSize=1;" vertex="1" parent="1">
          <mxGeometry x="465" y="890" width="150" height="70" as="geometry" />
        </mxCell>
        <mxCell id="etOVG2wV07rIoBDFjDyh-9" value="" style="edgeStyle=orthogonalEdgeStyle;rounded=0;orthogonalLoop=1;jettySize=auto;html=1;" edge="1" parent="1" source="etOVG2wV07rIoBDFjDyh-7" target="RcuSR_sWdsqwu1360JzC-5">
          <mxGeometry relative="1" as="geometry" />
        </mxCell>
        <mxCell id="etOVG2wV07rIoBDFjDyh-7" value="OUTPUT user options" style="shape=parallelogram;perimeter=parallelogramPerimeter;whiteSpace=wrap;html=1;fixedSize=1;" vertex="1" parent="1">
          <mxGeometry x="464.5" y="530" width="151" height="60" as="geometry" />
        </mxCell>
        <mxCell id="BQUk5wlq5gaPyvShyjie-26" value="" style="edgeStyle=orthogonalEdgeStyle;rounded=0;orthogonalLoop=1;jettySize=auto;html=1;" edge="1" parent="1" source="etOVG2wV07rIoBDFjDyh-12" target="BQUk5wlq5gaPyvShyjie-1">
          <mxGeometry relative="1" as="geometry" />
        </mxCell>
        <mxCell id="BQUk5wlq5gaPyvShyjie-27" style="edgeStyle=orthogonalEdgeStyle;rounded=0;orthogonalLoop=1;jettySize=auto;html=1;" edge="1" parent="1" source="etOVG2wV07rIoBDFjDyh-12" target="etOVG2wV07rIoBDFjDyh-13">
          <mxGeometry relative="1" as="geometry" />
        </mxCell>
        <mxCell id="etOVG2wV07rIoBDFjDyh-12" value="IF user selection == 2&lt;div&gt;(update inventory)&lt;/div&gt;" style="rhombus;whiteSpace=wrap;html=1;" vertex="1" parent="1">
          <mxGeometry x="660" y="710" width="151" height="150" as="geometry" />
        </mxCell>
        <mxCell id="etOVG2wV07rIoBDFjDyh-13" value="IF user selection == 3&lt;div&gt;(make sales)&lt;/div&gt;" style="rhombus;whiteSpace=wrap;html=1;" vertex="1" parent="1">
          <mxGeometry x="1490" y="710" width="151" height="150" as="geometry" />
        </mxCell>
        <mxCell id="etOVG2wV07rIoBDFjDyh-14" value="IF user selection == 4&lt;div&gt;(see low stock)&lt;/div&gt;" style="rhombus;whiteSpace=wrap;html=1;" vertex="1" parent="1">
          <mxGeometry x="1714.5" y="710" width="151" height="150" as="geometry" />
        </mxCell>
        <mxCell id="BQUk5wlq5gaPyvShyjie-25" value="" style="edgeStyle=orthogonalEdgeStyle;rounded=0;orthogonalLoop=1;jettySize=auto;html=1;" edge="1" parent="1" source="BQUk5wlq5gaPyvShyjie-1" target="BQUk5wlq5gaPyvShyjie-2">
          <mxGeometry relative="1" as="geometry" />
        </mxCell>
        <mxCell id="BQUk5wlq5gaPyvShyjie-1" value="INPUT more options" style="shape=parallelogram;perimeter=parallelogramPerimeter;whiteSpace=wrap;html=1;fixedSize=1;" vertex="1" parent="1">
          <mxGeometry x="663.13" y="890" width="144.74" height="60" as="geometry" />
        </mxCell>
        <mxCell id="BQUk5wlq5gaPyvShyjie-21" value="" style="edgeStyle=orthogonalEdgeStyle;rounded=0;orthogonalLoop=1;jettySize=auto;html=1;" edge="1" parent="1" source="BQUk5wlq5gaPyvShyjie-2" target="BQUk5wlq5gaPyvShyjie-8">
          <mxGeometry relative="1" as="geometry" />
        </mxCell>
        <mxCell id="BQUk5wlq5gaPyvShyjie-2" value="IF option == 1&lt;div&gt;(add product)&lt;/div&gt;" style="rhombus;whiteSpace=wrap;html=1;" vertex="1" parent="1">
          <mxGeometry x="680.5" y="1000" width="110" height="110" as="geometry" />
        </mxCell>
        <mxCell id="BQUk5wlq5gaPyvShyjie-7" style="edgeStyle=orthogonalEdgeStyle;rounded=0;orthogonalLoop=1;jettySize=auto;html=1;entryX=0.5;entryY=0;entryDx=0;entryDy=0;" edge="1" parent="1" source="BQUk5wlq5gaPyvShyjie-3" target="RcuSR_sWdsqwu1360JzC-4">
          <mxGeometry relative="1" as="geometry" />
        </mxCell>
        <mxCell id="BQUk5wlq5gaPyvShyjie-3" value="Load inventory from file" style="rounded=0;whiteSpace=wrap;html=1;" vertex="1" parent="1">
          <mxGeometry x="480" y="360" width="120" height="60" as="geometry" />
        </mxCell>
        <mxCell id="BQUk5wlq5gaPyvShyjie-13" value="" style="edgeStyle=orthogonalEdgeStyle;rounded=0;orthogonalLoop=1;jettySize=auto;html=1;" edge="1" parent="1" source="BQUk5wlq5gaPyvShyjie-8" target="BQUk5wlq5gaPyvShyjie-10">
          <mxGeometry relative="1" as="geometry" />
        </mxCell>
        <mxCell id="BQUk5wlq5gaPyvShyjie-8" value="INPUT productType, name, supplier, price, amount, minAmount, sales, opt1, opt2" style="shape=parallelogram;perimeter=parallelogramPerimeter;whiteSpace=wrap;html=1;fixedSize=1;" vertex="1" parent="1">
          <mxGeometry x="640.5" y="1150" width="190" height="80" as="geometry" />
        </mxCell>
        <mxCell id="BQUk5wlq5gaPyvShyjie-35" value="" style="edgeStyle=orthogonalEdgeStyle;rounded=0;orthogonalLoop=1;jettySize=auto;html=1;" edge="1" parent="1" source="BQUk5wlq5gaPyvShyjie-9" target="BQUk5wlq5gaPyvShyjie-34">
          <mxGeometry relative="1" as="geometry" />
        </mxCell>
        <mxCell id="BQUk5wlq5gaPyvShyjie-9" value="INPUT continue update" style="shape=parallelogram;perimeter=parallelogramPerimeter;whiteSpace=wrap;html=1;fixedSize=1;" vertex="1" parent="1">
          <mxGeometry x="645.76" y="1410" width="179.5" height="60" as="geometry" />
        </mxCell>
        <mxCell id="BQUk5wlq5gaPyvShyjie-33" value="" style="edgeStyle=orthogonalEdgeStyle;rounded=0;orthogonalLoop=1;jettySize=auto;html=1;" edge="1" parent="1" source="BQUk5wlq5gaPyvShyjie-10" target="BQUk5wlq5gaPyvShyjie-9">
          <mxGeometry relative="1" as="geometry" />
        </mxCell>
        <mxCell id="BQUk5wlq5gaPyvShyjie-10" value="OUTPUT success message" style="shape=parallelogram;perimeter=parallelogramPerimeter;whiteSpace=wrap;html=1;fixedSize=1;" vertex="1" parent="1">
          <mxGeometry x="643.38" y="1290" width="184.25" height="70" as="geometry" />
        </mxCell>
        <mxCell id="BQUk5wlq5gaPyvShyjie-22" value="" style="edgeStyle=orthogonalEdgeStyle;rounded=0;orthogonalLoop=1;jettySize=auto;html=1;" edge="1" parent="1" source="BQUk5wlq5gaPyvShyjie-11" target="BQUk5wlq5gaPyvShyjie-12">
          <mxGeometry relative="1" as="geometry" />
        </mxCell>
        <mxCell id="BQUk5wlq5gaPyvShyjie-11" value="IF option == 2&lt;div&gt;(remove product)&lt;/div&gt;" style="rhombus;whiteSpace=wrap;html=1;" vertex="1" parent="1">
          <mxGeometry x="890" y="1000" width="110" height="110" as="geometry" />
        </mxCell>
        <mxCell id="BQUk5wlq5gaPyvShyjie-15" style="edgeStyle=orthogonalEdgeStyle;rounded=0;orthogonalLoop=1;jettySize=auto;html=1;exitX=0.5;exitY=1;exitDx=0;exitDy=0;strokeColor=default;endArrow=none;endFill=0;" edge="1" parent="1" source="BQUk5wlq5gaPyvShyjie-12">
          <mxGeometry relative="1" as="geometry">
            <mxPoint x="740" y="1261" as="targetPoint" />
            <mxPoint x="944" y="1221" as="sourcePoint" />
            <Array as="points">
              <mxPoint x="944" y="1220" />
              <mxPoint x="944" y="1250" />
              <mxPoint x="750" y="1250" />
              <mxPoint x="750" y="1261" />
            </Array>
          </mxGeometry>
        </mxCell>
        <mxCell id="BQUk5wlq5gaPyvShyjie-12" value="INPUT productName" style="shape=parallelogram;perimeter=parallelogramPerimeter;whiteSpace=wrap;html=1;fixedSize=1;" vertex="1" parent="1">
          <mxGeometry x="872.5" y="1160" width="145" height="60" as="geometry" />
        </mxCell>
        <mxCell id="BQUk5wlq5gaPyvShyjie-23" value="" style="edgeStyle=orthogonalEdgeStyle;rounded=0;orthogonalLoop=1;jettySize=auto;html=1;" edge="1" parent="1" source="BQUk5wlq5gaPyvShyjie-16" target="BQUk5wlq5gaPyvShyjie-18">
          <mxGeometry relative="1" as="geometry" />
        </mxCell>
        <mxCell id="BQUk5wlq5gaPyvShyjie-16" value="IF option == 3&lt;div&gt;(increase stock)&lt;/div&gt;" style="rhombus;whiteSpace=wrap;html=1;" vertex="1" parent="1">
          <mxGeometry x="1070" y="1000" width="110" height="110" as="geometry" />
        </mxCell>
        <mxCell id="BQUk5wlq5gaPyvShyjie-24" value="" style="edgeStyle=orthogonalEdgeStyle;rounded=0;orthogonalLoop=1;jettySize=auto;html=1;" edge="1" parent="1" source="BQUk5wlq5gaPyvShyjie-17" target="BQUk5wlq5gaPyvShyjie-19">
          <mxGeometry relative="1" as="geometry" />
        </mxCell>
        <mxCell id="BQUk5wlq5gaPyvShyjie-17" value="IF option == 3&lt;div&gt;(reduce stock)&lt;/div&gt;" style="rhombus;whiteSpace=wrap;html=1;" vertex="1" parent="1">
          <mxGeometry x="1252.5" y="1000" width="110" height="110" as="geometry" />
        </mxCell>
        <mxCell id="BQUk5wlq5gaPyvShyjie-20" style="edgeStyle=orthogonalEdgeStyle;rounded=0;orthogonalLoop=1;jettySize=auto;html=1;" edge="1" parent="1" source="BQUk5wlq5gaPyvShyjie-18">
          <mxGeometry relative="1" as="geometry">
            <mxPoint x="950" y="1250" as="targetPoint" />
            <Array as="points">
              <mxPoint x="1125" y="1240" />
              <mxPoint x="970" y="1240" />
              <mxPoint x="970" y="1250" />
            </Array>
          </mxGeometry>
        </mxCell>
        <mxCell id="BQUk5wlq5gaPyvShyjie-18" value="INPUT productName, amount" style="shape=parallelogram;perimeter=parallelogramPerimeter;whiteSpace=wrap;html=1;fixedSize=1;" vertex="1" parent="1">
          <mxGeometry x="1047.5" y="1160" width="155" height="60" as="geometry" />
        </mxCell>
        <mxCell id="BQUk5wlq5gaPyvShyjie-19" value="INPUT productName, amount" style="shape=parallelogram;perimeter=parallelogramPerimeter;whiteSpace=wrap;html=1;fixedSize=1;" vertex="1" parent="1">
          <mxGeometry x="1230" y="1160" width="155" height="60" as="geometry" />
        </mxCell>
        <mxCell id="BQUk5wlq5gaPyvShyjie-28" value="INPUT productName, amount" style="shape=parallelogram;perimeter=parallelogramPerimeter;whiteSpace=wrap;html=1;fixedSize=1;" vertex="1" parent="1">
          <mxGeometry x="1488.25" y="900" width="154.5" height="70" as="geometry" />
        </mxCell>
        <mxCell id="BQUk5wlq5gaPyvShyjie-29" value="OUTPUT low stock" style="shape=parallelogram;perimeter=parallelogramPerimeter;whiteSpace=wrap;html=1;fixedSize=1;" vertex="1" parent="1">
          <mxGeometry x="1730" y="910" width="140" height="60" as="geometry" />
        </mxCell>
        <mxCell id="BQUk5wlq5gaPyvShyjie-30" value="IF user selection == 5&lt;div&gt;(produce report)&lt;/div&gt;" style="rhombus;whiteSpace=wrap;html=1;" vertex="1" parent="1">
          <mxGeometry x="1930" y="710" width="151" height="150" as="geometry" />
        </mxCell>
        <mxCell id="BQUk5wlq5gaPyvShyjie-31" value="IF user selection == 6&lt;div&gt;(see low stock)&lt;/div&gt;" style="rhombus;whiteSpace=wrap;html=1;" vertex="1" parent="1">
          <mxGeometry x="2170" y="710" width="151" height="150" as="geometry" />
        </mxCell>
        <mxCell id="BQUk5wlq5gaPyvShyjie-32" value="OUTPUT report" style="shape=parallelogram;perimeter=parallelogramPerimeter;whiteSpace=wrap;html=1;fixedSize=1;" vertex="1" parent="1">
          <mxGeometry x="1933.25" y="905" width="144.5" height="65" as="geometry" />
        </mxCell>
        <mxCell id="BQUk5wlq5gaPyvShyjie-34" value="continue?" style="rhombus;whiteSpace=wrap;html=1;" vertex="1" parent="1">
          <mxGeometry x="658.25" y="1500" width="154.5" height="140" as="geometry" />
        </mxCell>
        <mxCell id="BQUk5wlq5gaPyvShyjie-37" value="" style="edgeStyle=orthogonalEdgeStyle;rounded=0;orthogonalLoop=1;jettySize=auto;html=1;" edge="1" parent="1" source="BQUk5wlq5gaPyvShyjie-38" target="BQUk5wlq5gaPyvShyjie-41">
          <mxGeometry relative="1" as="geometry" />
        </mxCell>
        <mxCell id="BQUk5wlq5gaPyvShyjie-38" value="INPUT continue update" style="shape=parallelogram;perimeter=parallelogramPerimeter;whiteSpace=wrap;html=1;fixedSize=1;" vertex="1" parent="1">
          <mxGeometry x="1475.76" y="1130" width="179.5" height="60" as="geometry" />
        </mxCell>
        <mxCell id="BQUk5wlq5gaPyvShyjie-39" value="" style="edgeStyle=orthogonalEdgeStyle;rounded=0;orthogonalLoop=1;jettySize=auto;html=1;" edge="1" parent="1" source="BQUk5wlq5gaPyvShyjie-40" target="BQUk5wlq5gaPyvShyjie-38">
          <mxGeometry relative="1" as="geometry" />
        </mxCell>
        <mxCell id="BQUk5wlq5gaPyvShyjie-40" value="OUTPUT success message" style="shape=parallelogram;perimeter=parallelogramPerimeter;whiteSpace=wrap;html=1;fixedSize=1;" vertex="1" parent="1">
          <mxGeometry x="1473.38" y="1010" width="184.25" height="70" as="geometry" />
        </mxCell>
        <mxCell id="BQUk5wlq5gaPyvShyjie-41" value="continue?" style="rhombus;whiteSpace=wrap;html=1;" vertex="1" parent="1">
          <mxGeometry x="1488.25" y="1220" width="154.5" height="140" as="geometry" />
        </mxCell>
        <mxCell id="BQUk5wlq5gaPyvShyjie-43" value="OUTPUT report.txt" style="shape=parallelogram;perimeter=parallelogramPerimeter;whiteSpace=wrap;html=1;fixedSize=1;" vertex="1" parent="1">
          <mxGeometry x="1933.25" y="1000" width="144.5" height="60" as="geometry" />
        </mxCell>
      </root>
    </mxGraphModel>
  </diagram>
</mxfile>
